<?xml version="1.0" encoding="UTF-8" standalone="no"?>
<svg width="74px" height="96px" viewBox="0 0 74 96" version="1.1" xmlns="http://www.w3.org/2000/svg" xmlns:xlink="http://www.w3.org/1999/xlink">
    <!-- Generator: Sketch 50.2 (55047) - http://www.bohemiancoding.com/sketch -->
    <title>up-white</title>
    <desc>Created with Sketch.</desc>
    <defs></defs>
    <g id="Page-1" stroke="none" stroke-width="1" fill="none" fill-rule="evenodd">
        <path d="M30.6,3.2 L2.7,31 C-0.9,34.6 -0.9,40.3 2.7,43.9 C6.3,47.5 12,47.5 15.6,43.9 L27.9,31.6 L27.9,86.4 C27.9,91.4 32,95.5 37,95.5 C42,95.5 46.1,91.4 46.1,86.4 L46.1,31.6 L58.4,43.9 C62,47.5 67.7,47.5 71.3,43.9 C73.1,42.1 74,39.8 74,37.5 C74,35.2 73,32.8 71.3,31 L43.4,3.2 C41.7,1.5 39.4,0.5 37,0.5 C34.6,0.5 32.3,1.5 30.6,3.2 Z" id="up-white" fill="#FFFFFF" fill-rule="nonzero"></path>
    </g>
</svg>